<svg width="96" height="96" viewBox="0 0 484 480" fill="none" xmlns="http://www.w3.org/2000/svg">
<path d="M262.997 84.4545L220.739 339H163.068L93.4659 205.264H91.9744L69.6023 339H0.497159L42.7557 84.4545H101.42L170.028 217.693H172.017L193.892 84.4545H262.997Z" fill="#E2E2E2"/>
<path d="M330.929 435H231.497L273.756 180.455H369.21C395.394 180.455 417.269 185.716 434.835 196.239C452.402 206.763 464.872 221.802 472.246 241.357C479.621 260.911 481.071 284.195 476.597 311.207C472.288 337.225 463.546 359.473 450.371 377.951C437.28 396.429 420.542 410.556 400.158 420.334C379.858 430.111 356.781 435 330.929 435ZM310.297 376.335H335.403C347.998 376.335 359.226 374.139 369.086 369.748C379.029 365.273 387.315 357.816 393.944 347.376C400.656 336.853 405.503 322.476 408.486 304.247C411.303 287.012 411.22 273.713 408.237 264.35C405.254 254.904 399.578 248.358 391.21 244.712C382.841 240.984 372.027 239.119 358.77 239.119H333.166L310.297 376.335Z" fill="#E2E2E2"/>
</svg>
